<svg xmlns="http://www.w3.org/2000/svg" width="140" height="140" fill="none"><g clip-path="url(#a)"><path fill="#5DE2F8" d="M140 0H0v139.8h140V0Z"/><path fill="#0052FF" d="M70.2 46.9c6.3 0 11.5-5.1 11.5-11.5S76.5 24 70.2 24s-11.5 5.1-11.5 11.5 5.1 11.4 11.5 11.4Z"/><path fill="#fff" d="M36.7 85.5C36.7 67 51.7 52 70.2 52s33.5 15 33.5 33.5h-67Z"/><path fill="#73A2FF" d="M86.1 115.8H54.2V81c0-8.8 7.1-15.9 15.9-15.9S86 72.2 86 81l.1 34.8Z"/><path fill="#0A0B0D" d="M54.2 85.5V81c0-8.8 7.1-15.9 15.9-15.9S86 72.2 86 81v4.5H54.2Z"/></g><defs><clipPath id="a"><path fill="#fff" d="M0 0h140v139.8H0z"/></clipPath></defs></svg>