<svg xmlns="http://www.w3.org/2000/svg" width="141" height="141" fill="none"><g clip-path="url(#a)"><path fill="#ED702F" d="M140.8 0H0v140.4h140.8V0Z"/><path fill="#fff" d="M70.4 48.4c6.3 0 11.5-5.1 11.5-11.5s-5.1-11.5-11.5-11.5C64.1 25.5 59 30.6 59 37c0 6.4 5.1 11.4 11.4 11.4Z"/><path fill="#FFD200" d="M103.4 53.5c0 18.1-14.7 32.8-32.8 32.8-18.1 0-32.9-14.6-32.9-32.8h65.7Z"/><path fill="#0052FF" d="m80.7 63 23.3 51.3H36.9L60.2 63h20.5Z"/><path fill="#0A0B0D" d="M70.6 86.4c-6.8 0-13.2-2.1-18.4-5.7l8-17.7h20.5l8.1 17.8c-5.2 3.5-11.5 5.6-18.2 5.6Z"/></g><defs><clipPath id="a"><path fill="#fff" d="M0 0h140.8v140.4H0z"/></clipPath></defs></svg>