<svg xmlns="http://www.w3.org/2000/svg" width="141" height="141" fill="none"><g clip-path="url(#a)"><path fill="#5DE2F8" d="M140.8 0H0v140.4h140.8V0Z"/><path fill="#fff" d="M103.9 55.3c0 18.3-14.8 33.2-33.2 33.2-18.3 0-33.2-14.8-33.2-33.2h66.4Z"/><path fill="#ED702F" d="M37.5 112.5c0-18.3 14.8-33.2 33.2-33.2 18.4 0 33.2 14.8 33.2 33.2H37.5Z"/><path fill="#0052FF" d="M70.7 88.4c-6.1 0-11.9-1.7-16.8-4.6 4.9-2.9 10.7-4.6 16.8-4.6 6.1 0 11.9 1.7 16.8 4.6-4.9 3-10.6 4.6-16.8 4.6ZM68.9 50.6c6.3 0 11.5-5.1 11.5-11.5s-5.1-11.5-11.5-11.5-11.5 5.1-11.5 11.5 5.2 11.5 11.5 11.5Z"/></g><defs><clipPath id="a"><path fill="#fff" d="M0 0h140.8v140.4H0z"/></clipPath></defs></svg>