<svg xmlns="http://www.w3.org/2000/svg" width="141" height="141" fill="none"><g clip-path="url(#a)"><path fill="#73A2FF" d="M140.8 0H0v140.4h140.8V0Z"/><path fill="#fff" d="M70.2 95.5 49 73 27.9 50.4h84.6L91.3 73 70.2 95.5Z"/><path fill="#00D17F" d="M70.2 119.6 49 97 27.9 74.5h84.6L91.3 97l-21.1 22.6Z"/><path fill="#0052FF" d="m70.2 95.5-19.7-21h39.4l-19.7 21Z"/><path fill="#0A0B0D" d="M69.2 45.7c6.3 0 11.5-5.1 11.5-11.5s-5.1-11.5-11.5-11.5-11.5 5.1-11.5 11.5 5.2 11.5 11.5 11.5Z"/></g><defs><clipPath id="a"><path fill="#fff" d="M0 0h140.8v140.4H0z"/></clipPath></defs></svg>